<?xml version="1.0" encoding="utf-8"?>
<!-- Generator: Adobe Illustrator 23.0.2, SVG Export Plug-In . SVG Version: 6.00 Build 0)  -->
<svg version="1.1" id="Layer_1" xmlns="http://www.w3.org/2000/svg" xmlns:xlink="http://www.w3.org/1999/xlink" x="0px" y="0px"
	 viewBox="0 0 1703.78 595.28" style="enable-background:new 0 0 1703.78 595.28;" xml:space="preserve">
<style type="text/css">
	.st0{fill:none;}
	.st1{fill:#1E1C57;}
	.st2{fill:none;stroke:#1E1C57;stroke-width:13;stroke-miterlimit:10;}
	.st3{fill:#CFA32B;}
	.st4{fill:#FFFFFF;}
	.st5{font-family:'DINPro';}
	.st6{font-size:237.6085px;}
</style>
<g>
	<text transform="matrix(1 0 0 1 568.9781 373.4421)" class="st4 st5 st6">Safariway</text>
</g>
<g>
	<path class="st0" d="M325.09,105.68c0,13.36,0,26.47,0,39.86c27.35,0,54.48,0,81.84,0c0-13.38,0-26.49,0-39.58
		C404.18,105.2,331.07,104.92,325.09,105.68z"/>
	<path class="st0" d="M406.02,90.79c0.29-2.61-0.58-4.37-3.01-5.26c-1.52-0.56-3.22-0.87-4.84-0.87c-21.45-0.06-42.91-0.05-64.36,0
		c-1.5,0-3.1,0.22-4.47,0.78c-2.17,0.88-3.97,2.29-3.65,5.36C352.53,90.79,379.27,90.79,406.02,90.79z"/>
	<path class="st0" d="M406.02,90.79c0.29-2.61-0.58-4.37-3.01-5.26c-1.52-0.56-3.22-0.87-4.84-0.87c-21.45-0.06-42.91-0.05-64.36,0
		c-1.5,0-3.1,0.22-4.47,0.78c-2.17,0.88-3.97,2.29-3.65,5.36C352.53,90.79,379.27,90.79,406.02,90.79z"/>
	<path class="st0" d="M325.09,105.68c0,13.36,0,26.47,0,39.86c27.35,0,54.48,0,81.84,0c0-13.38,0-26.49,0-39.58
		C404.18,105.2,331.07,104.92,325.09,105.68z"/>
	<path class="st0" d="M325.09,105.68c0,13.36,0,26.47,0,39.86c27.35,0,54.48,0,81.84,0c0-13.38,0-26.49,0-39.58
		C404.18,105.2,331.07,104.92,325.09,105.68z"/>
	<path class="st0" d="M406.02,90.79c0.29-2.61-0.58-4.37-3.01-5.26c-1.52-0.56-3.22-0.87-4.84-0.87c-21.45-0.06-42.91-0.05-64.36,0
		c-1.5,0-3.1,0.22-4.47,0.78c-2.17,0.88-3.97,2.29-3.65,5.36C352.53,90.79,379.27,90.79,406.02,90.79z"/>
	<path class="st0" d="M406.02,90.79c0.29-2.61-0.58-4.37-3.01-5.26c-1.52-0.56-3.22-0.87-4.84-0.87c-21.45-0.06-42.91-0.05-64.36,0
		c-1.5,0-3.1,0.22-4.47,0.78c-2.17,0.88-3.97,2.29-3.65,5.36C352.53,90.79,379.27,90.79,406.02,90.79z"/>
	<path class="st0" d="M325.09,105.68c0,13.36,0,26.47,0,39.86c27.35,0,54.48,0,81.84,0c0-13.38,0-26.49,0-39.58
		C404.18,105.2,331.07,104.92,325.09,105.68z"/>
	<path class="st0" d="M406.02,90.79c0.29-2.61-0.58-4.37-3.01-5.26c-1.52-0.56-3.22-0.87-4.84-0.87c-21.45-0.06-42.91-0.05-64.36,0
		c-1.5,0-3.1,0.22-4.47,0.78c-2.17,0.88-3.97,2.29-3.65,5.36C352.53,90.79,379.27,90.79,406.02,90.79z"/>
	<path class="st0" d="M325.09,105.68c0,13.36,0,26.47,0,39.86c27.35,0,54.48,0,81.84,0c0-13.38,0-26.49,0-39.58
		C404.18,105.2,331.07,104.92,325.09,105.68z"/>
	<path class="st3" d="M440.06,254.02c0-1.66,0.06-3.33-0.05-4.99c-0.39-5.87-2.24-11.22-5.83-15.94
		c-6.14-8.07-14.61-11.35-24.39-11.38c-32.73-0.1-65.47-0.05-98.2-0.01c-0.8,0-1.62,0.06-2.43,0.17h-48.15h-3.2h-71.33
		c-2.45-10.85-12.16-18.99-23.74-18.99c-13.42,0-24.34,10.92-24.34,24.34c0,13.42,10.92,24.34,24.34,24.34
		c10.16,0,18.88-6.26,22.52-15.12h60.92v0h7.41h0.29h7.12v0h0h49.94c0,0,0,0,0.01,0c6.52,0.08,13.04,0.04,19.56,0.04
		c26.47,0,52.94-0.04,79.4,0.06c2.61,0.01,5.46,0.35,7.78,1.42c4.72,2.19,7.45,6.09,7.55,11.51c0.02,1.28,0.06,2.56,0.06,3.83
		c0,16.75,0,33.5,0,50.25h-0.05v149.6h14.81v-149.6h0C440.07,287.05,440.07,270.54,440.06,254.02z M162.73,238.66
		c-6.3,0-11.43-5.13-11.43-11.43c0-6.3,5.13-11.43,11.43-11.43c6.3,0,11.43,5.13,11.43,11.43
		C174.16,233.53,169.03,238.66,162.73,238.66z"/>
	<path class="st3" d="M389.32,310c0-1.07,0-2.13,0-3.2c0-1.66,0.06-3.33-0.05-4.99c-0.39-5.87-2.24-11.22-5.83-15.94
		c-6.14-8.07-14.61-11.35-24.39-11.38c-32.73-0.1-65.47-0.05-98.2-0.01c-0.8,0-1.62,0.06-2.43,0.17h-48.15h-3.2h-71.33
		c-2.45-10.85-12.16-18.99-23.74-18.99c-13.42,0-24.34,10.92-24.34,24.34s10.92,24.34,24.34,24.34c10.16,0,18.88-6.26,22.52-15.12
		h60.92h7.41h0.29h7.12h0h49.94c0,0,0,0,0.01,0c6.52,0.08,13.04,0.04,19.56,0.04c26.47,0,52.94-0.04,79.4,0.06
		c2.61,0.01,5.46,0.35,7.78,1.42c4.72,2.19,7.45,6.09,7.55,11.51c0.02,1.28,0.06,2.56,0.06,3.83c0,1.3,0,2.6,0,3.9h0v5.55
		c0,19.95,0,39.9,0,59.85h0v115.83h14.77V310H389.32z M111.99,291.43c-6.3,0-11.43-5.13-11.43-11.43s5.13-11.43,11.43-11.43
		c6.3,0,11.43,5.13,11.43,11.43S118.29,291.43,111.99,291.43z"/>
	<path class="st3" d="M339.94,357.92c0-1.66,0.06-3.33-0.05-4.99c-0.39-5.87-2.24-11.22-5.83-15.94
		c-6.14-8.07-14.61-11.35-24.39-11.38c-27.31-0.08-54.62-0.06-81.93-0.02l-19.07,0.19c-2.45-10.85-12.16-18.99-23.74-18.99
		c-13.42,0-24.34,10.92-24.34,24.34c0,13.42,10.92,24.34,24.34,24.34c10.16,0,18.88-6.26,22.52-15.12h20.29v0.04
		c0.89,0,1.77,0,2.66,0c26.47,0,52.94-0.04,79.4,0.06c2.61,0.01,5.46,0.35,7.78,1.42c4.72,2.19,7.45,6.09,7.55,11.51
		c0.02,1.28,0.06,2.56,0.06,3.83c0,23.1,0,149.71,0,172.81h14.76C339.94,507.16,339.94,380.78,339.94,357.92z M184.91,342.55
		c-6.3,0-11.43-5.13-11.43-11.43c0-6.3,5.13-11.43,11.43-11.43c6.3,0,11.43,5.13,11.43,11.43
		C196.34,337.43,191.22,342.55,184.91,342.55z"/>
	<path class="st0" d="M325.09,105.68c0,13.36,0,26.47,0,39.86c27.35,0,54.48,0,81.84,0c0-13.38,0-26.49,0-39.58
		C404.18,105.2,331.07,104.92,325.09,105.68z"/>
	<path class="st0" d="M406.02,90.79c0.29-2.61-0.58-4.37-3.01-5.26c-1.52-0.56-3.22-0.87-4.84-0.87c-21.45-0.06-42.91-0.05-64.36,0
		c-1.5,0-3.1,0.22-4.47,0.78c-2.17,0.88-3.97,2.29-3.65,5.36C352.53,90.79,379.27,90.79,406.02,90.79z"/>
	<path class="st0" d="M406.02,90.79c0.29-2.61-0.58-4.37-3.01-5.26c-1.52-0.56-3.22-0.87-4.84-0.87c-21.45-0.06-42.91-0.05-64.36,0
		c-1.5,0-3.1,0.22-4.47,0.78c-2.17,0.88-3.97,2.29-3.65,5.36C352.53,90.79,379.27,90.79,406.02,90.79z"/>
	<path class="st0" d="M325.09,105.68c0,13.36,0,26.47,0,39.86c27.35,0,54.48,0,81.84,0c0-13.38,0-26.49,0-39.58
		C404.18,105.2,331.07,104.92,325.09,105.68z"/>
	<path class="st0" d="M406.02,90.79c0.29-2.61-0.58-4.37-3.01-5.26c-1.52-0.56-3.22-0.87-4.84-0.87c-21.45-0.06-42.91-0.05-64.36,0
		c-1.5,0-3.1,0.22-4.47,0.78c-2.17,0.88-3.97,2.29-3.65,5.36C352.53,90.79,379.27,90.79,406.02,90.79z"/>
	<path class="st0" d="M325.09,105.68c0,13.36,0,26.47,0,39.86c27.35,0,54.48,0,81.84,0c0-13.38,0-26.49,0-39.58
		C404.18,105.2,331.07,104.92,325.09,105.68z"/>
	<path class="st4" d="M490.49,395.02c0-70.72,0-141.43,0-212.15c0-7.15-1.32-13.97-5.27-20.08c-6.27-9.71-14.99-15.73-26.67-16.34
		c-10.71-0.56-21.45-0.44-32.18-0.61c-1.49-0.02-2.98,0-4.91,0c0-1.91,0-3.28,0-4.65c0-16.62,0.04-33.25-0.02-49.87
		c-0.04-9.98-6.3-17.9-15.98-20.35c-1.59-0.4-3.27-0.54-4.92-0.55c-23.02-0.03-46.03,0.11-69.05-0.08
		c-10.78-0.09-20.98,9.01-20.93,20.98c0.06,16.37,0.01,32.73,0.01,49.1c0,1.53,0,3.06,0,5.08c-1.48,0.12-2.81,0.32-4.14,0.33
		c-8.82,0.03-17.65-0.18-26.47,0.1c-4.55,0.15-9.26,0.52-13.56,1.88c-13.61,4.3-21.81,13.65-24.18,27.85
		c-0.4,2.38-0.65,4.82-0.65,7.23c0,9.78,0,19.56-0.01,29.34h14.77c0-9.09,0-18.18,0-27.27c0-1.66,0.04-3.32,0.06-4.99
		c0.06-6.18,2.76-11.08,7.47-14.88c4.26-3.45,9.29-4.53,14.7-4.52c58.31,0.03,116.61,0.02,174.92,0.02c0.89,0,1.79-0.02,2.68,0.03
		c9.24,0.52,16.79,6.42,18.95,15.19c0.66,2.68,0.59,5.57,0.59,8.37c0.03,71.35,0.02,142.7,0.02,214.04c0,0,0,0,0,0v17.42h0.5h11.79
		h2.51L490.49,395.02L490.49,395.02z M329.32,85.43c1.37-0.56,2.97-0.78,4.47-0.78c21.45-0.05,42.91-0.05,64.36,0
		c1.62,0,3.32,0.31,4.84,0.87c2.43,0.89,3.3,2.66,3.01,5.26c-26.74,0-53.49,0-80.34,0C325.35,87.72,327.15,86.32,329.32,85.43z
		 M406.93,145.54c-27.36,0-54.49,0-81.84,0c0-13.4,0-26.51,0-39.86c5.98-0.76,79.09-0.48,81.84,0.28
		C406.93,119.05,406.93,132.17,406.93,145.54z"/>
</g>
</svg>
