<?xml version="1.0" encoding="utf-8"?>
<!-- Generator: Adobe Illustrator 23.0.2, SVG Export Plug-In . SVG Version: 6.00 Build 0)  -->
<svg version="1.1" id="Layer_1" xmlns="http://www.w3.org/2000/svg" xmlns:xlink="http://www.w3.org/1999/xlink" x="0px" y="0px"
	 viewBox="0 0 841.89 595.28" style="enable-background:new 0 0 841.89 595.28;" xml:space="preserve">
<style type="text/css">
	.st0{fill:none;}
	.st1{fill:#1E1C57;}
	.st2{fill:none;stroke:#1E1C57;stroke-width:13;stroke-miterlimit:10;}
	.st3{fill:#CFA32B;}
	.st4{font-family:'CenturyGothic';}
	.st5{font-size:124.7098px;}
	.st6{fill:#FFFFFF;}
</style>
<path class="st0" d="M338.17,563.13c0,0,0-0.01,0-0.01l-0.35-0.01C337.93,563.11,338.05,563.12,338.17,563.13z"/>
<path class="st0" d="M350.84,563.48c0.33,0,0.66,0.01,0.99,0.01l-0.99-0.03C350.84,563.47,350.84,563.48,350.84,563.48z"/>
<path class="st1" d="M337.82,563.1c-0.05,0-0.1-0.01-0.15-0.01l0,0.01L337.82,563.1z"/>
<path class="st0" d="M396.49,82.28c0,9.31,0,18.44,0,27.78c19.06,0,37.96,0,57.02,0c0-9.32,0-18.46,0-27.58
	C451.59,81.95,400.65,81.76,396.49,82.28z"/>
<path class="st0" d="M452.87,71.91c0.2-1.82-0.41-3.05-2.1-3.67c-1.06-0.39-2.25-0.6-3.38-0.61c-14.95-0.04-29.9-0.04-44.85,0
	c-1.04,0-2.16,0.15-3.12,0.54c-1.51,0.61-2.76,1.6-2.54,3.73C415.6,71.91,434.24,71.91,452.87,71.91z"/>
<path class="st0" d="M452.87,71.91c0.2-1.82-0.41-3.05-2.1-3.67c-1.06-0.39-2.25-0.6-3.38-0.61c-14.95-0.04-29.9-0.04-44.85,0
	c-1.04,0-2.16,0.15-3.12,0.54c-1.51,0.61-2.76,1.6-2.54,3.73C415.6,71.91,434.24,71.91,452.87,71.91z"/>
<path class="st0" d="M396.49,82.28c0,9.31,0,18.44,0,27.78c19.06,0,37.96,0,57.02,0c0-9.32,0-18.46,0-27.58
	C451.59,81.95,400.65,81.76,396.49,82.28z"/>
<path class="st0" d="M396.49,82.28c0,9.31,0,18.44,0,27.78c19.06,0,37.96,0,57.02,0c0-9.32,0-18.46,0-27.58
	C451.59,81.95,400.65,81.76,396.49,82.28z"/>
<path class="st0" d="M452.87,71.91c0.2-1.82-0.41-3.05-2.1-3.67c-1.06-0.39-2.25-0.6-3.38-0.61c-14.95-0.04-29.9-0.04-44.85,0
	c-1.04,0-2.16,0.15-3.12,0.54c-1.51,0.61-2.76,1.6-2.54,3.73C415.6,71.91,434.24,71.91,452.87,71.91z"/>
<path class="st0" d="M452.87,71.91c0.2-1.82-0.41-3.05-2.1-3.67c-1.06-0.39-2.25-0.6-3.38-0.61c-14.95-0.04-29.9-0.04-44.85,0
	c-1.04,0-2.16,0.15-3.12,0.54c-1.51,0.61-2.76,1.6-2.54,3.73C415.6,71.91,434.24,71.91,452.87,71.91z"/>
<path class="st0" d="M396.49,82.28c0,9.31,0,18.44,0,27.78c19.06,0,37.96,0,57.02,0c0-9.32,0-18.46,0-27.58
	C451.59,81.95,400.65,81.76,396.49,82.28z"/>
<path class="st0" d="M452.87,71.91c0.2-1.82-0.41-3.05-2.1-3.67c-1.06-0.39-2.25-0.6-3.38-0.61c-14.95-0.04-29.9-0.04-44.85,0
	c-1.04,0-2.16,0.15-3.12,0.54c-1.51,0.61-2.76,1.6-2.54,3.73C415.6,71.91,434.24,71.91,452.87,71.91z"/>
<path class="st0" d="M396.49,82.28c0,9.31,0,18.44,0,27.78c19.06,0,37.96,0,57.02,0c0-9.32,0-18.46,0-27.58
	C451.59,81.95,400.65,81.76,396.49,82.28z"/>
<path class="st3" d="M476.6,185.64c0-1.16,0.04-2.32-0.03-3.47c-0.28-4.09-1.56-7.82-4.06-11.11c-4.28-5.62-10.18-7.91-17-7.93
	c-22.81-0.07-45.61-0.03-68.42,0c-0.56,0-1.13,0.04-1.69,0.12h-33.55h-2.23h-49.7c-1.7-7.56-8.47-13.23-16.54-13.23
	c-9.35,0-16.96,7.61-16.96,16.96c0,9.35,7.61,16.96,16.96,16.96c7.08,0,13.16-4.36,15.69-10.54h42.45v0h5.17h0.2h4.96v0h0h34.8
	c0,0,0,0,0.01,0c4.54,0.06,9.09,0.02,13.63,0.02c18.44,0,36.88-0.03,55.33,0.04c1.82,0.01,3.8,0.24,5.42,0.99
	c3.29,1.52,5.19,4.25,5.26,8.02c0.02,0.89,0.04,1.78,0.04,2.67c0,11.67,0,23.34,0,35.01h-0.03V324.4h10.32V220.17h0
	C476.6,208.66,476.6,197.15,476.6,185.64z M283.36,174.94c-4.39,0-7.96-3.57-7.96-7.96c0-4.39,3.57-7.96,7.96-7.96
	c4.39,0,7.96,3.57,7.96,7.96C291.33,171.37,287.75,174.94,283.36,174.94z"/>
<path class="st3" d="M441.24,224.64c0-0.74,0-1.49,0-2.23c0-1.16,0.04-2.32-0.03-3.47c-0.28-4.09-1.56-7.82-4.06-11.11
	c-4.28-5.62-10.18-7.91-17-7.93c-22.81-0.07-45.61-0.03-68.42,0c-0.56,0-1.13,0.04-1.69,0.12h-33.55h-2.23h-49.7
	c-1.7-7.56-8.47-13.23-16.54-13.23c-9.35,0-16.96,7.61-16.96,16.96c0,9.35,7.61,16.96,16.96,16.96c7.08,0,13.16-4.36,15.69-10.54
	h42.45h5.17h0.2h4.96h0h34.8c0,0,0,0,0.01,0c4.54,0.06,9.09,0.02,13.63,0.02c18.44,0,36.88-0.03,55.33,0.04
	c1.82,0.01,3.8,0.24,5.42,0.99c3.29,1.52,5.19,4.25,5.26,8.02c0.02,0.89,0.04,1.78,0.04,2.67c0,0.91,0,1.81,0,2.72h0v3.87
	c0,13.9,0,27.8,0,41.7h0v80.71h10.29V224.64H441.24z M248.01,211.71c-4.39,0-7.96-3.57-7.96-7.96c0-4.39,3.57-7.96,7.96-7.96
	c4.39,0,7.96,3.57,7.96,7.96C255.97,208.14,252.4,211.71,248.01,211.71z"/>
<path class="st3" d="M406.83,258.03c0-1.16,0.04-2.32-0.03-3.47c-0.28-4.09-1.56-7.82-4.06-11.11c-4.28-5.62-10.18-7.91-17-7.93
	c-19.03-0.06-38.06-0.04-57.09-0.02l-13.29,0.13c-1.7-7.56-8.47-13.23-16.54-13.23c-9.35,0-16.96,7.61-16.96,16.96
	c0,9.35,7.61,16.96,16.96,16.96c7.08,0,13.16-4.36,15.69-10.54h14.14v0.03c0.62,0,1.24,0,1.85,0c18.44,0,36.88-0.03,55.33,0.04
	c1.82,0.01,3.8,0.24,5.42,0.99c3.29,1.52,5.19,4.25,5.26,8.02c0.02,0.89,0.04,1.78,0.04,2.67c0,16.09,0,104.31,0,120.41h10.28
	C406.83,362.02,406.83,273.96,406.83,258.03z M298.82,247.33c-4.39,0-7.96-3.57-7.96-7.96c0-4.39,3.57-7.96,7.96-7.96
	c4.39,0,7.96,3.57,7.96,7.96C306.78,243.76,303.21,247.33,298.82,247.33z"/>
<path class="st0" d="M396.49,82.28c0,9.31,0,18.44,0,27.78c19.06,0,37.96,0,57.02,0c0-9.32,0-18.46,0-27.58
	C451.59,81.95,400.65,81.76,396.49,82.28z"/>
<path class="st0" d="M452.87,71.91c0.2-1.82-0.41-3.05-2.1-3.67c-1.06-0.39-2.25-0.6-3.38-0.61c-14.95-0.04-29.9-0.04-44.85,0
	c-1.04,0-2.16,0.15-3.12,0.54c-1.51,0.61-2.76,1.6-2.54,3.73C415.6,71.91,434.24,71.91,452.87,71.91z"/>
<path class="st0" d="M452.87,71.91c0.2-1.82-0.41-3.05-2.1-3.67c-1.06-0.39-2.25-0.6-3.38-0.61c-14.95-0.04-29.9-0.04-44.85,0
	c-1.04,0-2.16,0.15-3.12,0.54c-1.51,0.61-2.76,1.6-2.54,3.73C415.6,71.91,434.24,71.91,452.87,71.91z"/>
<path class="st0" d="M396.49,82.28c0,9.31,0,18.44,0,27.78c19.06,0,37.96,0,57.02,0c0-9.32,0-18.46,0-27.58
	C451.59,81.95,400.65,81.76,396.49,82.28z"/>
<path class="st0" d="M452.87,71.91c0.2-1.82-0.41-3.05-2.1-3.67c-1.06-0.39-2.25-0.6-3.38-0.61c-14.95-0.04-29.9-0.04-44.85,0
	c-1.04,0-2.16,0.15-3.12,0.54c-1.51,0.61-2.76,1.6-2.54,3.73C415.6,71.91,434.24,71.91,452.87,71.91z"/>
<path class="st0" d="M396.49,82.28c0,9.31,0,18.44,0,27.78c19.06,0,37.96,0,57.02,0c0-9.32,0-18.46,0-27.58
	C451.59,81.95,400.65,81.76,396.49,82.28z"/>
<path class="st1" d="M511.73,283.88c0-49.27,0-98.54,0-147.82c0-4.98-0.92-9.73-3.67-13.99c-4.37-6.77-10.44-10.96-18.58-11.39
	c-7.46-0.39-14.94-0.31-22.42-0.43c-1.04-0.02-2.08,0-3.42,0c0-1.33,0-2.28,0-3.24c0-11.58,0.03-23.16-0.02-34.75
	c-0.03-6.95-4.39-12.47-11.14-14.18c-1.1-0.28-2.28-0.38-3.43-0.38c-16.04-0.02-32.07,0.08-48.11-0.06
	c-7.51-0.06-14.62,6.28-14.59,14.62c0.04,11.4,0.01,22.81,0.01,34.21c0,1.07,0,2.13,0,3.54c-1.03,0.09-1.96,0.23-2.89,0.23
	c-6.15,0.02-12.3-0.13-18.44,0.07c-3.17,0.1-6.45,0.36-9.45,1.31c-9.48,2.99-15.2,9.51-16.85,19.41c-0.28,1.66-0.45,3.36-0.46,5.04
	c0,6.81,0,13.63,0,20.44h10.29c0-6.33,0-12.67,0-19c0-1.16,0.03-2.32,0.04-3.47c0.04-4.31,1.92-7.72,5.2-10.37
	c2.97-2.4,6.48-3.15,10.24-3.15c40.63,0.02,81.25,0.01,121.88,0.01c0.62,0,1.25-0.02,1.87,0.02c6.44,0.36,11.7,4.48,13.2,10.59
	c0.46,1.87,0.41,3.88,0.41,5.83c0.02,49.71,0.02,99.43,0.01,149.14c0,0,0,0,0,0v12.14h0.35h8.21h1.75L511.73,283.88L511.73,283.88z
	 M399.44,68.18c0.96-0.39,2.07-0.54,3.12-0.54c14.95-0.03,29.9-0.04,44.85,0c1.13,0,2.32,0.22,3.38,0.61
	c1.69,0.62,2.3,1.85,2.1,3.67c-18.63,0-37.27,0-55.98,0C396.67,69.77,397.92,68.79,399.44,68.18z M453.51,110.06
	c-19.06,0-37.96,0-57.02,0c0-9.33,0-18.47,0-27.78c4.17-0.53,55.11-0.34,57.02,0.2C453.51,91.6,453.51,100.74,453.51,110.06z"/>
<text transform="matrix(1 0 0 1 103.3312 510.3301)" class="st1 st4 st5">Safariway</text>
</svg>
